<svg xmlns="http://www.w3.org/2000/svg" xmlns:xlink="http://www.w3.org/1999/xlink" version="1.1" x="0px" y="0px" viewBox="0 0 90 112.5" enable-background="new 0 0 90 90" xml:space="preserve"><g><path d="M78.55957,53.75879c-3.14258-6.65527-7.91699-13.14307-9.83496-15.14355c-0.24512-0.25342-0.51758-0.45654-0.78711-0.66895   c-1.15527-3.86865-2.71777-7.84375-4.6123-11.54834C79.08105,22.30811,76.48047,4.28613,76.48047,4.28613L59.61523,17.06885   h-2.36914c-2.18359-2.5708-4.56934-4.62646-7.09473-5.89746c0.87402-1.66602,1.07715-3.17578,0.38672-3.67334   c-0.81836-0.58984-2.58301,0.45605-4.06738,2.3457c0.00684-0.17432,0.01953-0.34229,0.01953-0.51904   c0-2.63525-0.87207-4.77197-1.94922-4.77197c-1.07813,0-1.94922,2.13672-1.94922,4.77197c0,0.17676,0.0127,0.3457,0.01953,0.51904   c-1.48438-1.88965-3.24902-2.93555-4.06738-2.3457c-0.69141,0.49756-0.48633,2.00732,0.3877,3.67432   c-2.75586,1.38623-5.34863,3.69727-7.69141,6.60059H29.4668L12.59863,4.99072c0,0-2.56934,17.78809,12.83887,22.03418   c-1.94238,3.90869-3.52051,8.09326-4.63965,12.1167c-2.14746,2.44824-6.44922,8.45801-9.35938,14.61719   c-1.57715,3.34473-2.85449,9.77246,0.08203,10.71387c2.95703,0.94629,5.57813-3.3916,8.20801-6.87891   c1.4502,5.62305,4.74219,10.48828,9.21191,13.9248v6.79297c0,1.82617,0.83008,3.44531,2.11426,4.55469   c-0.27734,0.93555-0.07129,1.82813,0.51563,2.03906c0.50488,0.18262,1.11914-0.20313,1.52344-0.88379   c0.28223,0.0918,0.56641,0.1748,0.86523,0.22754c0.12793,0.83984,0.59668,1.46484,1.1582,1.46484   c0.5752,0.00195,1.05566-0.64844,1.16992-1.51367c0.28027-0.06152,0.5498-0.15039,0.81445-0.25098   c0.40332,0.72656,1.04297,1.1416,1.56641,0.95605c0.62012-0.22266,0.83691-1.20801,0.48047-2.20117   c-0.00293-0.01172-0.00781-0.01855-0.01074-0.02832c1.15625-1.10156,1.88477-2.64258,1.88477-4.36426v-1.74219   c1.15234,0.16016,2.32129,0.26953,3.51855,0.26953c1.58301,0,3.125-0.16504,4.62695-0.43945v1.91211   c0,1.82617,0.83105,3.44531,2.11426,4.55469c-0.27734,0.93555-0.07031,1.82813,0.5166,2.03906   c0.50391,0.18262,1.11719-0.20313,1.52246-0.88379c0.28125,0.0918,0.56641,0.1748,0.86523,0.22754   c0.12793,0.83887,0.59668,1.46484,1.1582,1.46484c0.57715,0.00195,1.05566-0.64844,1.16992-1.51367   c0.28027-0.06152,0.54883-0.15039,0.81348-0.25098c0.4043,0.72656,1.04395,1.1416,1.56738,0.95605   c0.62207-0.22266,0.83691-1.20801,0.48047-2.20117c-0.00293-0.01172-0.00781-0.01855-0.01074-0.02637   c1.15527-1.09961,1.88379-2.64453,1.88379-4.36621v-7.6875c4.13281-3.55566,7.11816-8.39746,8.33105-13.91504   c2.86719,3.57813,5.68555,8.79199,8.89746,7.76367C81.41699,63.53125,80.13867,57.10352,78.55957,53.75879z M44.99902,50.66113   c-7.7627,0-14.05566-6.29102-14.05566-14.05469c0-7.7627,6.29297-14.05518,14.05566-14.05518s14.05469,6.29248,14.05469,14.05518   C59.05371,44.37012,52.76172,50.66113,44.99902,50.66113z"/><g><path d="M45,25.92334c-5.37793,0-9.73828,4.35889-9.73828,9.7373c0,5.37744,4.36035,9.7373,9.73828,9.7373    s9.7373-4.35986,9.7373-9.7373C54.7373,30.28223,50.37793,25.92334,45,25.92334z M45,42.24365    c-3.63574,0-6.58301-2.94922-6.58301-6.58301c0-3.63574,2.94727-6.58301,6.58301-6.58301    c3.63672,0,6.58203,2.94727,6.58203,6.58301C51.58203,39.29443,48.63672,42.24365,45,42.24365z"/><path d="M45,32.2876c-0.86816,0-1.65039,0.33643-2.24805,0.87402c0.05176-0.00537,0.09766-0.02979,0.15137-0.02979    c0.69141,0,1.25293,0.56006,1.25293,1.25146c0,0.69043-0.56152,1.25049-1.25293,1.25049    c-0.53418,0-0.98047-0.3374-1.16113-0.80713c-0.06836,0.26855-0.11621,0.54443-0.11621,0.83398    c0,1.86279,1.51172,3.37207,3.37402,3.37207c1.86328,0,3.37305-1.50928,3.37305-3.37207    C48.37305,33.79688,46.86328,32.2876,45,32.2876z"/></g></g></svg>