<svg xmlns="http://www.w3.org/2000/svg" xmlns:xlink="http://www.w3.org/1999/xlink" version="1.1" x="0px" y="0px" viewBox="0 0 100 125" enable-background="new 0 0 100 100" xml:space="preserve"><g><path fill="#000000" d="M49.692,85.645c0.028-0.003,0.045,0.011,0.024,0.173L49.692,85.645c-0.027,0-0.064,0.016-0.092-0.062   c0.133,0.6,0.264,1.299,0.406,1.976l0.19,0.225c-0.333-1.672-0.49-3.36-0.807-4.74C49.445,84.029,49.58,84.7,49.692,85.645z"/><path fill="#000000" d="M50.497,87.863l0.031,0.169C50.542,87.872,50.525,87.859,50.497,87.863z"/><path fill="#000000" d="M52.64,75.33c0.09,0.77,0.128,1.228,0.129,1.489c0.06,0.119,0.134,0.274,0.225,0.484l0.006-0.134   c-0.049-0.779-0.08-1.576-0.104-2.39c-0.04-0.332-0.083-0.653-0.145-0.924L52.64,75.33z"/><path fill="#000000" d="M52.769,76.819C52.259,75.809,52.778,77.839,52.769,76.819L52.769,76.819z"/><polygon fill="#000000" points="50.115,71.244 50.123,71.704 50.129,71.587  "/><path fill="#000000" d="M50.537,73.911l0.031,2.238c0.024,0.581,0.063,1.156,0.106,1.731c0.14,2.735,0.082,5.911,0.629,8.756   c0.15,0.063,0.29,0.051,0.417-0.071c-0.308-3.069-0.559-6.193-0.334-9.363l-0.012-0.074c-0.222-1.367,0.015-3.579-0.119-5.306   c-0.196-1.729-0.162-3.45-0.446-5.168C50.847,69.132,50.756,71.484,50.537,73.911z"/><path fill="#000000" d="M49.186,62.691l-0.183-1.378c0.104,1.854,0.189,3.688,0.265,5.52c0.216,2.928,0.102,5.998,0.196,9.047   l0.01,1.035c0.458-5.686,0.709-11.215-0.147-15.989l-0.042-0.276c0.115,2.271,0.223,4.513,0.312,6.749   C49.467,65.825,49.375,64.261,49.186,62.691z"/><polygon fill="#000000" points="50.525,73.193 50.49,73.686 50.503,74.254 50.537,73.911  "/><path fill="#000000" d="M51.673,64.205c0.061,1.503,0.166,2.925,0.304,4.15l0.007-0.065c0.003-0.544-0.049-1.16-0.07-1.691   C51.819,65.829,51.738,65.025,51.673,64.205z"/><path fill="#000000" d="M47.845,13.751l-0.04-0.022l-0.025,0.129C47.813,13.803,47.845,13.751,47.845,13.751z"/><polygon fill="#000000" points="48.195,14.255 48.216,14.222 48.18,14.208  "/><path fill="#000000" d="M47.804,13.728c-0.151-0.082-0.324-0.126-0.437-0.271c0.036-0.06,0.109-0.179,0.146-0.239   c-0.043-0.108-0.159-0.098-0.238-0.148c0.037-0.06,0.073-0.119,0.034-0.144c-0.081-0.104-0.189-0.083-0.285,0.019   C47.31,13.481,47.074,14.227,47.804,13.728z"/><path fill="#000000" d="M47.836,14.394l0.189-0.31c-0.072-0.088-0.137-0.188-0.248-0.212   C47.747,14.073,47.764,14.219,47.836,14.394z"/><path fill="#000000" d="M29.243,33.821c0.018,0.021,0.023,0.037-0.051,0.046L29.243,33.821c-0.017-0.021-0.045-0.048-0.032-0.082   c-0.15,0.199-0.331,0.422-0.529,0.612l0.023,0.179c0.498-0.459,0.995-0.914,1.288-1.444C29.679,33.327,29.521,33.562,29.243,33.821   z"/><path fill="#000000" d="M28.804,34.82c0.074-0.009,0.069-0.024,0.05-0.046L28.804,34.82z"/><path fill="#000000" d="M38.047,27.302c0.264-0.271,0.418-0.597,0.561-0.923c-0.434,0.556-0.956,1.023-1.301,1.456L38.047,27.302z"/><path fill="#000000" d="M39.33,24.8c-0.371,0.276-0.543,0.616-0.695,0.965c0.235-0.268,0.459-0.55,0.676-0.843L39.33,24.8z"/><path fill="#000000" d="M39.194,25.371c-0.293,0.297-0.442,0.637-0.586,1.008C38.843,26.047,39.063,25.726,39.194,25.371z"/><path fill="#000000" d="M34.276,33.849c-0.167,0.271-0.278,0.416-0.351,0.482c0,0.079-0.003,0.177-0.012,0.302l0.042-0.028   l0.619-0.685c0.069-0.119,0.139-0.235,0.184-0.354L34.276,33.849z"/><path fill="#000000" d="M33.925,34.332C33.925,33.662,33.636,34.593,33.925,34.332L33.925,34.332z"/><polygon fill="#000000" points="34.109,30.695 33.969,30.82 34.009,30.794  "/><path fill="#000000" d="M37.908,30.031c-0.223,0.154-0.439,0.32-0.646,0.493c0.453-0.332,0.885-0.619,1.235-1.019   c-0.064,0.043-0.134,0.035-0.214,0.087C38.213,29.742,38.084,29.927,37.908,30.031z"/><path fill="#000000" d="M32.865,32.356c-0.158,0.176-0.317,0.345-0.46,0.534c-0.734,0.823-1.782,1.5-2.563,2.353   c0.065,0.125,0.155,0.233,0.281,0.316c1.006-0.704,1.838-1.621,2.895-2.264l0.016-0.028c0.282-0.527,1.058-0.921,1.511-1.466   c0.428-0.591,0.966-1.015,1.434-1.561c-0.849,0.496-1.597,1.058-2.459,1.499L32.865,32.356z"/><path fill="#000000" d="M38.634,25.765c-0.153,0.178-0.3,0.373-0.465,0.533c-0.422,0.508-0.809,0.943-1.209,1.399   c0.341-0.252,0.702-0.5,1.05-0.778C38.33,26.595,38.473,26.183,38.634,25.765z"/><path fill="#000000" d="M36.56,28.097l0.4-0.4c-0.613,0.403-1.214,0.822-1.821,1.246c-0.948,0.778-1.928,1.544-2.821,2.436   l-0.313,0.282c1.935-1.235,3.937-2.274,5.254-3.752c-0.013-0.005,0.034-0.05,0.048-0.074c-0.698,0.461-1.476,0.989-2.202,1.5   C35.598,28.931,36.091,28.522,36.56,28.097z"/><polygon fill="#000000" points="33.73,31.543 33.561,31.642 33.395,31.8 33.519,31.74  "/><path fill="#000000" d="M36.002,31.584l0.024-0.009l0.526-0.391c0.219-0.227,0.457-0.448,0.709-0.66   C36.782,30.867,36.304,31.207,36.002,31.584z"/><path fill="#000000" d="M38.195,31.6c0.059-0.035,0.178-0.104,0.237-0.14l0.065-0.137l-0.172,0.091L38.195,31.6z"/><path fill="#000000" d="M41.339,28.354c-0.785,1.036-1.788,2.013-2.753,2.793l-0.088,0.176c0.611-0.312,1.501-0.964,1.894-1.631   c0.091-0.134,0.181-0.389,0.299-0.485c0.512-0.507,0.911-1.073,1.252-1.646c-0.184,0.256-0.372,0.516-0.585,0.773L41.339,28.354z"/><polygon fill="#000000" points="49.708,13.566 49.681,13.595 49.729,13.598  "/><path fill="#000000" d="M49.095,13.755c-0.134,0.107-0.244,0.248-0.419,0.297c-0.039-0.055-0.116-0.164-0.154-0.219   c-0.115,0-0.152,0.109-0.228,0.164c-0.039-0.054-0.077-0.109-0.115-0.082c-0.125,0.036-0.149,0.143-0.099,0.265   C48.671,14.108,49.25,14.604,49.095,13.755z"/><path fill="#000000" d="M67.658,35.367c0.235,0.089,0.501,0.203,0.741,0.341l0.164-0.073c-0.583-0.354-1.164-0.708-1.765-0.835   c0.317,0.241,0.605,0.308,0.929,0.513c0.016-0.024,0.029-0.033,0.06,0.037l-0.06-0.037C67.712,35.335,67.693,35.37,67.658,35.367z"/><path fill="#000000" d="M68.754,35.423l0.059,0.036C68.782,35.39,68.77,35.399,68.754,35.423z"/><path fill="#000000" d="M59.14,28.029c-0.296-0.302-0.66-0.485-1.014-0.685c0.602,0.541,1.169,1.131,1.692,1.483L59.14,28.029z"/><path fill="#000000" d="M56.502,26.236c0.247,0.471,0.606,0.745,0.982,0.976l-0.856-0.923L56.502,26.236z"/><path fill="#000000" d="M58.126,27.344c-0.332-0.31-0.678-0.599-1.038-0.821C57.378,26.906,57.752,27.131,58.126,27.344z"/><path fill="#000000" d="M66.378,30.466c0.306,0.084,0.474,0.15,0.558,0.202c0.075-0.021,0.17-0.046,0.293-0.072l-0.038-0.033   c-0.273-0.124-0.547-0.258-0.821-0.4c-0.135-0.032-0.259-0.074-0.385-0.084C66.107,30.22,66.239,30.349,66.378,30.466z"/><path fill="#000000" d="M66.936,30.668C66.291,30.852,67.264,30.872,66.936,30.668L66.936,30.668z"/><polygon fill="#000000" points="63.381,31.44 63.537,31.545 63.503,31.513  "/><path fill="#000000" d="M61.906,27.886c0.188,0.187,0.388,0.365,0.592,0.531c-0.39-0.372-0.782-0.747-1.185-0.997   c0.044,0.05,0.053,0.132,0.097,0.182C61.57,27.644,61.773,27.734,61.906,27.886z"/><path fill="#000000" d="M64.542,31.752c0.247,0.165,0.517,0.306,0.771,0.466l0.639,0.302c0.985,0.495,1.935,1.308,2.968,1.817   c0.102-0.098,0.179-0.215,0.222-0.361c-0.94-0.771-2.073-1.292-2.961-2.159l-0.031-0.007c-0.59-0.122-1.173-0.765-1.807-1.07   c-0.688-0.252-1.217-0.683-1.854-1.018C63.153,30.452,63.896,31.025,64.542,31.752z"/><path fill="#000000" d="M57.484,27.212c0.191,0.2,0.375,0.405,0.577,0.603c0.583,0.533,1.11,0.989,1.705,1.41   c-0.366-0.37-0.689-0.772-1.023-1.175C58.372,27.677,57.91,27.477,57.484,27.212z"/><path fill="#000000" d="M61.804,30.779l-1.554-1.215l-0.483-0.339c0.536,0.553,1.062,1.101,1.643,1.604   c0.99,0.785,2.005,1.546,3.105,2.176l0.36,0.227c-1.728-1.543-3.245-3.229-4.956-4.341l-0.101-0.064   C60.459,29.509,61.104,30.17,61.804,30.779z"/><polygon fill="#000000" points="64.298,31.596 64.437,31.736 64.632,31.857 64.542,31.752  "/><path fill="#000000" d="M63.785,29.391l-0.013-0.021l-0.49-0.414c-0.266-0.158-0.537-0.331-0.784-0.539   C62.916,28.82,63.362,29.182,63.785,29.391z"/><path fill="#000000" d="M63.379,27.297c-0.042-0.049-0.128-0.147-0.171-0.196l-0.142-0.034l0.114,0.145L63.379,27.297z"/><path fill="#000000" d="M60.327,24.774c0.863,0.829,1.704,1.563,2.557,2.246l0.183,0.048c-0.458-0.553-0.954-1.074-1.576-1.432   c-0.119-0.073-0.354-0.14-0.438-0.242c-0.422-0.467-0.901-0.857-1.376-1.251l0.634,0.615L60.327,24.774z"/><path fill="#000000" d="M30.698,53.02c0.016,0.023,0.02,0.04-0.054,0.041L30.698,53.02c-0.015-0.022-0.041-0.053-0.025-0.084   c-0.163,0.183-0.357,0.385-0.566,0.554l0.009,0.179c0.518-0.415,1.057-0.79,1.365-1.295C31.166,52.589,30.994,52.8,30.698,53.02z"/><path fill="#000000" d="M30.19,53.965c0.074-0.002,0.07-0.018,0.053-0.041L30.19,53.965z"/><path fill="#000000" d="M38.186,45.932c0.207-0.321,0.282-0.683,0.348-1.053c-0.31,0.661-0.712,1.269-0.931,1.795   C37.805,46.438,37.988,46.18,38.186,45.932z"/><path fill="#000000" d="M38.979,43.15c-0.336,0.337-0.445,0.736-0.533,1.117c0.187-0.319,0.354-0.666,0.533-0.991L38.979,43.15z"/><path fill="#000000" d="M38.932,43.747c-0.238,0.363-0.323,0.739-0.397,1.132C38.71,44.506,38.863,44.133,38.932,43.747z"/><path fill="#000000" d="M35.782,53.227c-0.182,0.293-0.308,0.454-0.389,0.53c-0.002,0.081-0.011,0.187-0.025,0.317l0.046-0.031   l0.691-0.77c0.078-0.125,0.151-0.267,0.195-0.396L35.782,53.227z"/><path fill="#000000" d="M35.394,53.757C35.416,53.058,35.075,54.053,35.394,53.757L35.394,53.757z"/><polygon fill="#000000" points="35.367,50.077 35.254,50.214 35.289,50.186  "/><path fill="#000000" d="M38.84,48.586l-0.493,0.661c0.372-0.421,0.685-0.89,0.887-1.322c-0.045,0.051-0.126,0.073-0.171,0.124   C39.044,48.212,38.978,48.43,38.84,48.586z"/><path fill="#000000" d="M34.921,51.154c-0.193,0.224-0.405,0.427-0.616,0.638l-0.451,0.537c-0.75,0.812-1.847,1.408-2.681,2.156   c0.054,0.131,0.134,0.246,0.251,0.341c1.049-0.574,1.95-1.439,3.045-2.089l0.016-0.028c0.29-0.538,1.067-0.983,1.464-1.596   c0.356-0.654,0.802-1.178,1.096-1.826C36.38,49.983,35.735,50.655,34.921,51.154z"/><path fill="#000000" d="M38.446,44.267l-0.36,0.647c-0.326,0.604-0.58,1.178-0.868,1.742c0.287-0.347,0.558-0.72,0.844-1.085   C38.317,45.183,38.348,44.704,38.446,44.267z"/><path fill="#000000" d="M36.993,47.127l0.226-0.472c-0.434,0.573-0.778,0.958-1.335,1.612c-0.569,0.89-1.356,1.7-2.153,2.563   l-0.282,0.275c1.804-1.099,3.389-2.624,4.113-4.334l0.042-0.099c-0.534,0.684-1.004,1.225-1.631,1.958   C36.41,48.054,36.674,47.647,36.993,47.127z"/><polygon fill="#000000" points="35.109,50.941 34.954,51.054 34.807,51.227 34.921,51.154  "/><path fill="#000000" d="M37.395,50.592l0.022-0.016l0.446-0.544c0.05-0.169,0.314-0.537,0.484-0.786   C37.95,49.722,37.675,50.075,37.395,50.592z"/><path fill="#000000" d="M39.547,50.026c0.051-0.054,0.16-0.158,0.208-0.213l0.026-0.158l-0.145,0.148L39.547,50.026z"/><path fill="#000000" d="M41.615,46.266c-0.563,1.108-1.123,2.165-1.796,3.186l-0.037,0.203c0.569-0.583,1.04-1.241,1.27-1.972   c0.054-0.14,0.07-0.394,0.149-0.508c0.356-0.563,0.601-1.161,0.824-1.75l-0.397,0.819L41.615,46.266z"/><path fill="#000000" d="M71.772,55.502c0.014-0.024,0.027-0.035,0.069,0.036L71.772,55.502c-0.014,0.023-0.028,0.061-0.067,0.059   c0.266,0.081,0.57,0.187,0.85,0.318l0.173-0.078c-0.688-0.335-1.364-0.695-2.033-0.769C71.085,55.24,71.392,55.311,71.772,55.502z"/><path fill="#000000" d="M72.913,55.58l0.07,0.035C72.941,55.545,72.928,55.555,72.913,55.58z"/><path fill="#000000" d="M60.388,49.784c-0.426-0.238-0.874-0.338-1.323-0.457c0.844,0.404,1.658,0.889,2.347,1.099   C61.062,50.234,60.727,50.008,60.388,49.784z"/><path fill="#000000" d="M56.934,48.505c0.438,0.454,0.928,0.658,1.41,0.822l-1.259-0.787L56.934,48.505z"/><path fill="#000000" d="M57.66,48.691c0.453,0.338,0.932,0.494,1.404,0.636C58.599,49.076,58.125,48.848,57.66,48.691z"/><path fill="#000000" d="M68.411,50.271l0.585,0.337c0.372,0.045,0.587,0.092,0.7,0.135c0.078-0.033,0.178-0.071,0.31-0.115   l-0.055-0.029l-1.077-0.309C68.712,50.271,68.555,50.259,68.411,50.271z"/><path fill="#000000" d="M69.696,50.743C69.032,51.023,70.14,50.912,69.696,50.743L69.696,50.743z"/><polygon fill="#000000" points="66.106,52.187 66.308,52.259 66.26,52.233  "/><path fill="#000000" d="M62.568,48.785c0.183,0.001,0.429,0.043,0.627,0.164c0.27,0.144,0.547,0.274,0.825,0.392   c-0.552-0.28-1.108-0.564-1.625-0.717C62.461,48.664,62.503,48.744,62.568,48.785z"/><path fill="#000000" d="M67.577,52.341l0.361,0.249l-0.415-0.22l-0.197-0.108c-0.473-0.156-0.953-0.328-1.463-0.515l1.267,0.402   c-0.764-0.453-1.546-0.949-2.374-1.25c-0.467-0.112-1.027-0.367-1.561-0.533l-0.056,0.03l-0.1-0.073   c-0.076-0.009-0.163-0.01-0.217-0.011c-0.536-0.214-1.096-0.397-1.636-0.675l-0.151-0.054c-0.158-0.049-0.331-0.222-0.464-0.31   c0.203,0.136,0.409,0.255,0.615,0.364c0.667,0.217,1.248,0.255,1.853,0.686c0.051,0.007,0.098,0.017,0.124,0.033l0.031,0.01   c0.299-0.13,0.746,0.118,1.129,0.339c-0.021-0.12,0.16,0.038,0.206-0.044c0.502,0.069,0.994,0.145,1.407,0.206   c0.638,0.135,1.141,0.516,1.751,0.531c0.183-0.01,0.437,0.178,0.665,0.247l0.336,0.04l-0.28-0.21   c-0.046-0.077,1.885,0.671,1.907,0.469c0.02-0.043-1.575-0.632-2.634-1.189c-0.137-0.235,0.504-0.511,0.662-0.479l0.066-0.005   l-0.45-0.279l-0.801-0.284c-0.431-0.156-0.864-0.316-1.287-0.49l0.378,0.072l0.189,0.026c0.513,0.088,1.013,0.364,1.521,0.676   l0.913,0.298l0.025,0.002c-0.354-0.188-0.695-0.411-1.03-0.617c-0.691-0.24-1.396-0.495-2.079-0.775l0.377,0.072   c0.564,0.053,1.136,0.351,1.702,0.704c0.654,0.229,1.327,0.434,1.985,0.607c-0.398-0.211-0.854-0.451-1.269-0.621   c-1.671-0.641-3.219-1.197-4.724-1.836c-0.224-0.009-0.438-0.035-0.623-0.112c-0.443-0.152-0.874-0.452-1.277-0.663   c0.011,0.12-0.177-0.006-0.203,0.032c-0.483-0.094-0.9-0.427-1.315-0.748c-0.06-0.044-0.032-0.082-0.071-0.159   c-0.847-0.058-1.564-0.706-2.252-1.323c-0.188-0.141-0.379-0.285-0.537-0.468c0.169,0.158,0.355,0.309,0.537,0.468   c0.436,0.317,0.889,0.587,1.361,0.828c-1.095-0.67-2.073-1.397-2.988-2.259c-0.856-0.833-1.747-1.544-2.563-2.358   c-0.351-0.318-0.605-0.71-0.819-1.125l0.138,0.046c-0.269-0.511-0.604-0.952-0.928-1.444l-0.088-0.134   c-0.673-0.938-1.14-1.829-1.572-2.902c-0.018-0.241-0.035-0.482-0.054-0.725c-0.079-1.051-0.085-2.1-0.072-3.145l0.095,0.257   c0.018-1.298-0.016-2.547-0.074-3.865l-0.018-0.358c-0.123-2.716-0.116-5.052,0.226-7.777c0.031-0.279,0.062-0.559,0.095-0.837   c0.456,0.554,0.892,1.113,1.324,1.686l0.021-0.025l0.481,0.67c0.153,0.228,0.386,0.321,0.543,0.549   c1.042,1.542,2.174,2.963,3.402,4.353c0.156,0.064,0.31,0.143,0.46,0.235c-0.067-0.088-0.13-0.186-0.188-0.293   c1.269,0.444,2.396,2.03,3.417,2.628c1.115,0.707,2.125,1.665,3.186,2.654c0.624,0.382,1.264,0.767,1.912,1.149   c-0.63-0.304-1.243-0.672-1.878-1.117c0.552,0.539,1.129,1.072,1.722,1.592c0.736,0.497,1.417,1.002,2.186,1.465   c0.199,0.075,0.373,0.188,0.54,0.185l0.432-0.151c-0.232-0.133-0.491-0.242-0.72-0.327c0.035,0.003,0.054-0.031,0.069-0.053   c-0.32-0.185-0.565-0.298-0.877-0.524c0.574,0.142,1.12,0.501,1.69,0.832l0.168-0.093c-1.106-0.78-2.273-1.517-3.435-2.252   c-0.226-0.114-0.455-0.232-0.681-0.362l0.252,0.287l-0.308-0.27l-0.14-0.138c-0.367-0.23-0.74-0.478-1.135-0.745l0.996,0.605   c-0.541-0.551-1.065-1.161-1.69-1.61c-0.375-0.198-0.786-0.547-1.19-0.821l-0.06,0.015l-0.063-0.087   c-0.063-0.025-0.14-0.045-0.187-0.057c-0.399-0.311-0.836-0.596-1.208-0.969l-0.116-0.08c-0.124-0.078-0.219-0.269-0.306-0.375   c0.134,0.164,0.275,0.314,0.422,0.456c0.503,0.348,1.013,0.505,1.395,1.026c0.044,0.017,0.081,0.036,0.099,0.057l0.024,0.016   c0.312-0.055,0.604,0.28,0.874,0.556c0.021-0.113,0.129,0.068,0.197,0.003c0.418,0.169,0.831,0.333,1.162,0.479   c0.514,0.244,0.839,0.678,1.365,0.796c0.159,0.024,0.317,0.243,0.502,0.333l0.282,0.082l-0.185-0.229   c-0.014-0.077,1.446,0.862,1.515,0.664c0.036-0.041-1.189-0.744-1.921-1.442c-0.043-0.237,0.596-0.386,0.718-0.332l0.058,0.005   l-0.295-0.326l-0.596-0.385c-0.325-0.204-0.628-0.448-0.942-0.682l0.304,0.138l0.155,0.06c0.397,0.191,0.748,0.5,1.079,0.869   c0.227,0.141,0.448,0.286,0.68,0.41l0.021,0.005c-0.241-0.216-0.454-0.479-0.677-0.716c-0.521-0.315-1.025-0.68-1.524-1.068   l0.303,0.137c0.471,0.162,0.845,0.531,1.222,0.931c0.484,0.318,0.98,0.596,1.489,0.812c-0.271-0.237-0.591-0.488-0.875-0.714   c-1.214-0.818-2.345-1.624-3.443-2.53c-0.194-0.056-0.374-0.125-0.51-0.234c-0.33-0.235-0.615-0.604-0.904-0.879   c-0.031,0.11-0.156-0.044-0.192-0.015c-0.4-0.188-0.654-0.583-0.936-0.958c-0.04-0.053-0.004-0.082-0.015-0.16   c-0.737-0.231-1.205-0.95-1.674-1.635c-0.136-0.162-0.263-0.332-0.379-0.515l0.379,0.515c0.311,0.368,0.658,0.693,1.022,1.002   c-0.805-0.823-1.524-1.646-2.202-2.556c-0.659-0.858-1.386-1.595-2.112-2.337c-0.291-0.306-0.516-0.658-0.723-1.02l0.133,0.035   c-0.258-0.45-0.543-0.861-0.887-1.268l-0.094-0.11c-0.727-0.829-1.284-1.584-1.917-2.503c-0.155-0.226-0.348-0.426-0.504-0.651   c-0.156-0.141-0.189,0.299-0.425,0.046l-0.008,0.069c0.201,0.177,0.398,0.32,0.358,0.436c-0.106,0.188-0.47-0.161-0.817-0.299   l-0.11,0.03c0,0-0.026-0.037-0.057-0.08l-0.049-0.004c-0.046,0.048-0.109,0.074-0.175,0.093l0.206,0.292   c-0.189-0.003-0.329-0.043-0.499-0.148l-0.003,0.003l-0.008-0.011l-0.107-0.071l-0.001,0c0.012,0.066,0.019,0.122,0.022,0.172   c-0.096-0.005-0.186-0.031-0.249-0.144c0.014-0.045,0.031-0.103,0.05-0.166c0.067,0.016,0.136,0.025,0.214,0.026l-0.155-0.22   c0.038-0.127,0.077-0.253,0.102-0.338c-0.036-0.203-0.178-0.057-0.267-0.085c0.053-0.176,0.106-0.352,0.062-0.366   c-0.082-0.148-0.217,0.007-0.349,0.347c0.038,0.144,0.063,0.312,0.082,0.485c-0.029-0.041-0.053-0.074-0.053-0.074l-0.036,0.029   l0.09,0.06c0.027,0.256,0.04,0.524,0.059,0.748c-0.174-0.033-0.381-0.078-0.59-0.054c0.027,0.064,0.074,0.132,0.14,0.198   c-0.038,0.027-0.115,0.081-0.115,0.081c0.072,0.144,0.129,0.28,0.178,0.414c-0.036,0.131-0.07,0.275-0.098,0.434   c-0.046-0.011-0.137-0.032-0.137-0.032c-0.006,0.022-0.012,0.042-0.018,0.064c-0.08-0.027-0.152-0.068-0.085-0.228l-0.066,0.021   c-0.081,0.253-0.123,0.492-0.245,0.504c-0.215-0.017-0.055-0.493-0.068-0.865l-0.073-0.088c0,0,0.023-0.039,0.05-0.084   l-0.016-0.046c-0.062-0.023-0.111-0.07-0.156-0.123l-0.184,0.309c-0.075-0.174-0.094-0.318-0.066-0.52l-0.005-0.002l0.007-0.011   l0.023-0.129l-0.001,0c-0.717,0.498-0.5-0.242-0.787-0.773c-0.05,0.053-0.097,0.126-0.133,0.218   c-0.04-0.024-0.121-0.073-0.121-0.073c-0.398,0.487-0.777,0.754-1.253,1.107c-0.11,0.095-0.271,0-0.375,0.178   c-0.279,0.477-0.588,0.916-0.822,1.408c-0.447,1.064-0.916,2.04-1.438,2.983l0.032,0.009l-0.398,0.674   c-0.141,0.217-0.128,0.459-0.271,0.677c-0.966,1.453-1.859,2.825-2.841,4.108c-0.024,0.149-0.063,0.299-0.117,0.449   c0.067-0.071,0.143-0.138,0.23-0.202c-0.132,1.265-1.53,2.326-2.195,3.13c-0.86,0.956-2.002,1.737-3.22,2.495   c-0.519,0.509-1.052,1.028-1.599,1.539c0.465-0.515,0.979-1.008,1.56-1.513c-0.65,0.401-1.313,0.813-1.975,1.233   c-0.659,0.596-1.348,1.078-1.991,1.702c-0.134,0.162-0.284,0.302-0.329,0.461l0.023,0.457c0.194-0.184,0.366-0.407,0.517-0.596   c-0.014,0.032,0.014,0.06,0.03,0.081c0.284-0.234,0.441-0.462,0.742-0.698c-0.276,0.531-0.792,0.931-1.265,1.392l0.042,0.188   c1.06-0.848,2.096-1.75,3.102-2.683l0.53-0.556l-0.342,0.165l0.341-0.223l0.167-0.101c0.315-0.295,0.643-0.601,1.002-0.906   l-0.833,0.808c0.665-0.387,1.396-0.726,1.965-1.247c0.275-0.321,0.711-0.629,1.047-0.983l-0.003-0.061l0.097-0.045   c0.036-0.058,0.069-0.129,0.089-0.173c0.381-0.34,0.727-0.683,1.077-1.014l0.081-0.103c0.077-0.112,0.266-0.173,0.362-0.261   c-0.15,0.13-0.305,0.234-0.443,0.364c-0.332,0.463-0.588,0.902-1.166,1.187c-0.024,0.039-0.05,0.072-0.073,0.086l-0.02,0.02   c-0.003,0.32-0.387,0.543-0.718,0.737c0.106,0.046-0.094,0.109-0.046,0.19c-0.258,0.367-0.512,0.736-0.731,1.029   c-0.372,0.433-0.875,0.638-1.125,1.122c-0.065,0.148-0.315,0.25-0.454,0.4l-0.156,0.249l0.273-0.115   c0.071-0.001-1.221,1.166-1.043,1.29c0.021,0.034,1.032-0.948,1.904-1.487c0.242,0.017,0.218,0.677,0.133,0.784l-0.021,0.055   l0.396-0.209l0.537-0.487l0.916-0.773l-0.21,0.271l-0.098,0.141c-0.279,0.361-0.707,0.609-1.145,0.849   c-0.197,0.187-0.398,0.371-0.58,0.563l-0.011,0.019c0.275-0.178,0.589-0.327,0.879-0.485c0.452-0.425,0.954-0.838,1.459-1.257   l-0.214,0.271c-0.265,0.44-0.754,0.719-1.245,0.986c-0.439,0.401-0.843,0.815-1.198,1.242c0.308-0.2,0.641-0.434,0.938-0.664   c1.123-0.986,2.255-1.912,3.403-2.885c0.098-0.185,0.206-0.353,0.344-0.47c0.394-0.383,0.825-0.653,1.166-0.988   c-0.116-0.026,0.062-0.17,0.033-0.207c0.24-0.43,0.673-0.725,1.042-1.088c0.054-0.05,0.086-0.016,0.168-0.041   c0.21-0.797,0.861-1.413,1.44-2.078c0.134-0.18,0.28-0.351,0.428-0.522c-0.124,0.181-0.276,0.351-0.428,0.522   c-0.3,0.411-0.557,0.848-0.837,1.284c0.749-1.002,1.378-1.961,2.051-2.93c0.632-0.933,1.051-1.908,1.45-2.877   c0.17-0.392,0.393-0.746,0.642-1.085l0.022,0.136c0.308-0.424,0.552-0.862,0.777-1.346l0.059-0.132   c0.428-0.995,0.85-1.817,1.395-2.75c-0.328,1.087-0.627,1.973-0.941,3.078c-0.089,0.356-0.286,0.337-0.335,0.879   c-0.155,1.45-0.269,2.883-0.273,4.309c0.052,2.386,0.167,4.629,0.26,6.837c-0.06,0.042-0.121,0.102-0.178,0.181   c-0.034-0.033-0.102-0.098-0.102-0.098c-0.534,0.412-0.942,0.628-1.521,0.924c-0.128,0.085-0.272-0.034-0.41,0.14   c-0.369,0.462-0.774,0.899-1.065,1.399c-0.605,1.091-1.128,2.095-1.681,3.087l0.032,0.008l-0.403,0.711   c-0.143,0.233-0.128,0.479-0.264,0.708c-0.933,1.554-1.693,3.056-2.478,4.534c-0.001,0.154-0.017,0.312-0.047,0.471   c0.056-0.083,0.122-0.165,0.199-0.244c0.07,1.279-1.064,2.655-1.466,3.639c-0.5,1.101-1.361,2.199-2.375,3.043   c-0.421,0.546-0.902,1.085-1.43,1.591c0.447-0.512,0.912-1.015,1.396-1.562c-0.565,0.453-1.175,0.876-1.806,1.281   c-0.633,0.567-1.329,0.986-1.999,1.543c-0.139,0.151-0.305,0.262-0.361,0.415l-0.012,0.455c0.201-0.167,0.396-0.358,0.557-0.531   c-0.015,0.03,0.01,0.062,0.024,0.083c0.293-0.21,0.459-0.425,0.773-0.631c-0.302,0.504-0.842,0.857-1.345,1.258l0.027,0.189   c1.111-0.712,2.217-1.536,3.193-2.484l0.501-0.565l-0.331,0.173l0.325-0.231l0.153-0.114c0.278-0.322,0.571-0.639,0.852-1   c-0.208,0.307-0.443,0.602-0.696,0.887c0.616-0.427,1.28-0.887,1.681-1.531c0.175-0.368,0.519-0.782,0.735-1.189l-0.02-0.057   l0.079-0.065c0.018-0.062,0.029-0.137,0.036-0.183c0.234-0.422,0.456-0.846,0.717-1.262l0.048-0.124   c0.043-0.131,0.199-0.252,0.279-0.354c-0.122,0.155-0.229,0.315-0.327,0.478c-0.211,0.532-0.299,1.03-0.752,1.445   c-0.012,0.042-0.027,0.08-0.045,0.098l-0.014,0.024c0.084,0.302-0.219,0.607-0.487,0.876c0.116,0.017-0.06,0.125,0.008,0.19   c-0.152,0.405-0.299,0.851-0.474,1.173c-0.292,0.508-0.779,0.786-0.998,1.292c-0.054,0.16-0.303,0.293-0.444,0.444l-0.156,0.259   l0.28-0.132c0.084,0.01-1.263,1.233-1.103,1.341c0.023,0.037,1.124-0.942,1.986-1.636c0.257-0.02,0.274,0.659,0.182,0.788   l-0.02,0.061l0.418-0.281c0.182-0.193,0.365-0.4,0.546-0.616c0.293-0.336,0.585-0.678,0.861-1.056l-0.174,0.349l-0.081,0.18   c-0.248,0.434-0.682,0.833-1.152,1.144l-0.613,0.677l-0.012,0.021c0.302-0.216,0.632-0.436,0.946-0.648   c0.476-0.545,0.964-1.1,1.417-1.721l-0.176,0.354c-0.211,0.568-0.713,0.972-1.241,1.367c-0.457,0.505-0.902,0.994-1.315,1.466   c0.344-0.245,0.73-0.506,1.05-0.815c0.616-0.615,1.208-1.254,1.73-1.964l0.389-0.522c-0.127,0.085,0.173-0.261,0.237-0.369   c0.235-0.331,0.485-0.648,0.688-0.989c0.044-0.216,0.1-0.416,0.201-0.577c0.225-0.382,0.523-0.776,0.751-1.139   c-0.118-0.002,0.014-0.169-0.023-0.197c0.122-0.442,0.423-0.814,0.714-1.208c0.041-0.056,0.079-0.029,0.153-0.065   c0.011-0.791,0.536-1.472,0.992-2.17c0.101-0.187,0.214-0.368,0.337-0.544c-0.098,0.183-0.217,0.364-0.337,0.544   c-0.231,0.425-0.399,0.875-0.583,1.328c0.52-1.057,0.999-2.036,1.546-3.015c0.51-0.938,0.851-1.89,1.207-2.828   c0.147-0.382,0.369-0.719,0.609-1.04l0.024,0.132c0.294-0.403,0.544-0.809,0.779-1.257l0.063-0.123   c0.292-0.594,0.6-1.108,0.953-1.612c0.028,0.52,0.127,1.061,0.126,1.653c-0.037,4.696,0.242,9.17,0.612,13.683   c0.101,0.349,0.191,0.727,0.273,1.124c-0.01-0.206-0.012-0.421-0.01-0.642c0.038,0.11,0.076,0.201,0.137,0.255   c0.053,0.195,0.104,0.398,0.151,0.609c-0.152,0.017-0.222-0.074-0.277-0.216c0-0.003,0-0.005-0.001-0.007c0,0.001,0,0.002,0,0.004   c-0.06-0.155-0.105-0.369-0.225-0.566l-0.048-0.562l-0.083-0.284c-0.008,0.322-0.003,0.629,0.011,0.924   c-0.005,0.011-0.011,0.02-0.016,0.031c-0.04-0.024-0.118-0.075-0.118-0.075c-0.327,0.351-0.66,0.508-1.096,0.714   c-0.099,0.059-0.252-0.049-0.341,0.079c-0.231,0.342-0.521,0.647-0.74,1.008c-0.41,0.808-0.892,1.531-1.42,2.238l0.029,0.016   l-0.402,0.503c-0.14,0.162-0.141,0.378-0.289,0.537c-0.974,1.086-1.894,2.167-2.809,3.312c-0.021,0.14-0.058,0.278-0.106,0.415   c0.063-0.062,0.135-0.119,0.217-0.171c-0.106,1.155-1.301,2.174-1.7,3.06c-0.481,0.979-1.242,1.835-2.099,2.651   c-0.314,0.518-0.655,1.036-1.024,1.54c0.295-0.504,0.626-0.993,0.996-1.514c-0.457,0.433-0.939,0.855-1.423,1.279   c-0.452,0.573-0.972,1.028-1.45,1.59c-0.091,0.151-0.213,0.268-0.231,0.414l0.082,0.421c0.151-0.164,0.282-0.359,0.388-0.533   c-0.007,0.03,0.022,0.057,0.041,0.076c0.214-0.22,0.321-0.428,0.552-0.646c-0.159,0.49-0.557,0.868-0.936,1.269l0.062,0.176   c0.873-0.735,1.646-1.611,2.327-2.54l0.34-0.55l-0.264,0.176l0.248-0.229l0.121-0.108c0.199-0.304,0.412-0.609,0.64-0.929   l-0.517,0.822c0.487-0.413,1.03-0.809,1.38-1.352c0.149-0.326,0.44-0.66,0.632-1.024l-0.02-0.056l0.071-0.053   c0.015-0.058,0.023-0.126,0.028-0.169c0.226-0.353,0.44-0.719,0.705-1.059l0.052-0.104c0.049-0.112,0.203-0.193,0.285-0.271   c-0.125,0.119-0.235,0.246-0.337,0.376c-0.221,0.461-0.316,0.9-0.733,1.228c-0.011,0.039-0.023,0.072-0.04,0.088l-0.012,0.021   c0.087,0.293-0.182,0.544-0.416,0.76c0.105,0.03-0.051,0.111,0.013,0.181c-0.121,0.366-0.241,0.734-0.353,1.029   c-0.205,0.443-0.6,0.681-0.699,1.154c-0.02,0.146-0.217,0.265-0.309,0.414l-0.084,0.243l0.219-0.13   c0.073-0.003-0.848,1.185-0.679,1.283c0.032,0.034,0.769-0.953,1.399-1.551c0.22-0.012,0.361,0.606,0.309,0.718l-0.005,0.054   l0.305-0.24l0.36-0.516l0.602-0.827l-0.113,0.276l-0.049,0.142c-0.151,0.37-0.459,0.65-0.8,0.925l-0.39,0.592l-0.006,0.02   c0.213-0.195,0.454-0.373,0.68-0.555c0.306-0.449,0.631-0.896,0.962-1.344l-0.113,0.276c-0.122,0.441-0.467,0.761-0.85,1.067   c-0.293,0.429-0.569,0.86-0.813,1.301c0.239-0.223,0.509-0.475,0.717-0.729c0.795-1.06,1.509-2.059,2.229-3.081   c0.033-0.181,0.078-0.347,0.166-0.47c0.185-0.301,0.473-0.579,0.689-0.849c-0.106-0.028,0.018-0.146-0.014-0.18   c0.118-0.371,0.438-0.612,0.724-0.894c0.041-0.04,0.073-0.007,0.143-0.02c0.084-0.69,0.635-1.157,1.144-1.647   c0.116-0.137,0.24-0.267,0.38-0.387l-0.38,0.387c-0.265,0.311-0.476,0.663-0.687,1.016c0.581-0.798,1.161-1.521,1.793-2.246   c0.596-0.699,1.044-1.457,1.462-2.23c0.175-0.312,0.414-0.566,0.662-0.814l0.015,0.126c0.304-0.313,0.562-0.646,0.798-1.028   l0.063-0.104c0.114-0.205,0.227-0.398,0.341-0.587l0.018,0.206c-0.027-0.008-0.054-0.017-0.082-0.023   c0.009,0.072,0.03,0.169,0.083,0.242c-0.043,0.017-0.131,0.051-0.131,0.051c0.151,0.58,0.152,1.046,0.214,1.587   c0.024,0.135-0.136,0.231-0.036,0.401c0.084,0.134,0.167,0.267,0.249,0.397c0.108,0.881,0.22,1.738,0.327,2.604   c-0.034-0.754-0.072-1.512-0.109-2.273c0.069,0.102,0.143,0.199,0.219,0.293c0.054,0.469,0.11,0.913,0.171,1.316l-0.054-1.176   c0.013,0.015,0.024,0.03,0.037,0.044c0.055,0.053,0.108,0.101,0.162,0.152c0.072,0.663,0.148,1.28,0.236,1.815   c0.479,3.098,0.692,6.523,0.464,10.102c0.068,1.771,0.09,3.606,0.124,5.47c-0.091-1.702-0.107-3.454-0.13-5.353   c-0.101,1.904-0.252,3.845-0.353,5.798c0.018,2.197-0.021,4.309,0.216,6.536c0.082,0.513,0.14,1.025,0.263,1.358   c0.145,0.229,0.3,0.455,0.447,0.653c-0.112-0.664-0.214-1.35-0.321-1.938c0.022,0.075,0.061,0.063,0.087,0.062   c-0.074-0.925-0.188-1.586-0.21-2.551c0.277,1.36,0.37,3.014,0.625,4.651c0.066,0.078,0.132,0.146,0.198,0.204   c-0.422-3.39-0.472-6.897-0.506-10.33c-0.031-0.623-0.048-1.255-0.065-1.896l-0.106,0.947l0.061-1.025l0.032-0.49   c-0.022-1.073-0.037-2.178-0.057-3.347c0.043,0.935,0.073,1.888,0.092,2.854c0.14-1.93,0.351-3.952,0.199-5.855   c-0.15-1.006-0.213-2.34-0.361-3.516l-0.056-0.068l0.001-0.269c-0.036-0.15-0.085-0.312-0.116-0.411   c-0.114-0.99-0.234-1.981-0.336-3.005c0.023,0.022,0.046,0.042,0.07,0.063c0.195,1.085,0.38,2.06,0.382,3.353   c0.024,0.104,0.043,0.199,0.045,0.268l0.01,0.069c0.278,0.407,0.291,1.524,0.302,2.489c0.091-0.172,0.05,0.343,0.144,0.343   c0.215,1.02,0.365,2.073,0.465,2.933c0.13,1.384-0.05,2.75,0.158,3.962c0.072,0.348-0.016,1.027,0.002,1.54   c0.032,0.218,0.056,0.454,0.082,0.693l0.097-0.75c0.036-0.155,0.08,4.31,0.296,4.135c0.028,0.007-0.046-3.621,0.126-6.269   c0.171-0.505,0.662,0.489,0.688,0.833l0.028,0.125l0.101-1.172l-0.028-1.887c-0.017-1.041-0.035-2.007-0.081-3.148   c0.043,0.377,0.066,0.586,0.104,0.888l0.058,0.411c0.128,1.118,0.06,2.413-0.053,3.736c0.013,0.708,0.024,1.407,0.044,2.096   l0.007,0.054c0.054-0.873,0.143-1.77,0.214-2.652c-0.036-1.648-0.033-3.261-0.146-5.052c0.039,0.304,0.095,0.489,0.128,0.889   c0.208,1.211,0.14,2.669,0.019,4.163c0.026,1.55,0.056,3.06,0.141,4.497c0.049-0.974,0.114-2.092,0.13-3.079   c0.001-2.012-0.003-3.861-0.089-5.909c-0.139-1.72-0.255-3.411-0.423-5.093c0.024,0.021,0.049,0.041,0.072,0.062l0.005,0.346   l0.108,0.514c-0.005-0.172-0.016-0.516-0.021-0.689l-0.037-0.123c0.835,0.71,1.705,1.318,2.618,1.877   c0.135-0.001,0.27,0.011,0.402,0.032c-0.063-0.049-0.124-0.106-0.18-0.178c1.097-0.086,2.158,0.824,3.031,0.977   c0.891,0.178,1.896,0.763,2.843,1.132c0.541,0.062,1.081,0.128,1.62,0.216c-0.515-0.022-1.027-0.094-1.589-0.202l1.539,0.681   c0.624,0.132,1.164,0.373,1.767,0.561c0.152,0.017,0.284,0.076,0.409,0.04l0.341-0.231c-0.182-0.078-0.383-0.126-0.563-0.145   c0.028-0.006,0.042-0.042,0.054-0.066c-0.25-0.101-0.459-0.105-0.713-0.217c0.457-0.065,0.911,0.114,1.356,0.327l0.14-0.118   c-0.889-0.551-1.901-0.812-2.884-0.978l-0.563-0.049l0.231,0.154l-0.271-0.116l-0.128-0.058c-0.318-0.035-0.638-0.095-0.977-0.175   l0.849,0.114c-0.497-0.25-0.979-0.555-1.521-0.698c-0.327-0.015-0.673-0.193-1.033-0.296l-0.05,0.031l-0.059-0.055   c-0.057-0.002-0.123,0.005-0.165,0.009c-0.304-0.093-0.703-0.217-1.033-0.382l-0.103-0.025c-0.108-0.021-0.201-0.146-0.281-0.205   c0.123,0.09,0.252,0.164,0.384,0.23c0.44,0.1,0.877,0.082,1.198,0.373c0.037,0.001,0.07,0.006,0.087,0.018l0.021,0.006   c0.266-0.152,0.513,0.049,0.754,0.188c0.007-0.104,0.109,0.01,0.158-0.071c0.354-0.018,0.676-0.028,0.954-0.056   c0.422-0.004,0.712,0.247,1.136,0.116c0.124-0.05,0.278,0.067,0.427,0.08l0.225-0.038l-0.175-0.131   c-0.031-0.059,1.241,0.186,1.278,0.002c0.011-0.052-1.059-0.229-1.701-0.502c-0.069-0.182,0.389-0.584,0.488-0.592l0.044-0.021   L63.1,64.119c-0.172-0.02-0.313-0.049-0.474-0.075c-0.255-0.044-0.507-0.095-0.733-0.162l0.224-0.015l0.111-0.017   c0.317-0.033,0.579,0.102,0.872,0.269l0.568,0.059l0.017-0.004c-0.208-0.092-0.414-0.213-0.609-0.321   c-0.395-0.057-0.811-0.129-1.166-0.23l0.221-0.019c0.322-0.073,0.65,0.06,0.945,0.249c0.417,0.052,0.795,0.08,1.248,0.092   c-0.269-0.105-0.53-0.218-0.777-0.275c-1.084-0.227-1.634-0.221-2.696-0.706c-0.163,0.02-0.314,0.022-0.433-0.024   c-0.286-0.087-0.554-0.285-0.812-0.413c-0.018,0.104-0.132,0.019-0.159,0.056c-0.339-0.022-0.583-0.256-0.846-0.461   c-0.038-0.029-0.01-0.065-0.024-0.127c-0.628,0.074-1.071-0.349-1.515-0.735c-0.124-0.084-0.242-0.178-0.351-0.287l0.351,0.287   c0.282,0.192,0.604,0.323,0.927,0.448c-0.73-0.382-1.396-0.791-2.019-1.29c-0.606-0.463-1.251-0.81-1.895-1.178   c-0.26-0.153-0.45-0.375-0.631-0.604l0.115-0.011c-0.229-0.28-0.45-0.537-0.741-0.771l-0.078-0.062   c-0.057-0.048-0.11-0.096-0.164-0.144c-0.036-0.221-0.075-0.438-0.117-0.654c-0.062-0.341-0.223-0.851-0.237-1.192   c-0.118-1.617-0.341-3.153-0.543-4.682c0.07,0.731,0.148,1.473,0.231,2.229l0.006,0.062c0.146,1.376,0.293,2.714,0.435,4.031   c-0.061-0.059-0.12-0.117-0.178-0.177c-0.011-0.051-0.021-0.088-0.034-0.087c-0.228-1.021-0.236-2.22-0.292-3.417   c-0.009-0.171,0.038-0.173,0.069-0.351c-0.515-1.604-0.555-3.765-0.625-5.868c-0.033-0.532-0.056-1.068-0.06-1.616   c0.028,0.527,0.045,1.07,0.06,1.616c0.081,1.214,0.231,2.396,0.388,3.577c-0.275-2.772-0.484-5.409-0.589-8.129l0.306,0.383   c0.211,0.276,0.479,0.395,0.688,0.668c1.488,1.788,3.177,3.25,5.002,4.499c0.189,0.035,0.382,0.086,0.575,0.151   c-0.104-0.079-0.209-0.167-0.31-0.268c1.502,0.214,3.288,1.578,4.587,1.908c1.43,0.44,2.862,1.132,4.322,1.901   c0.792,0.246,1.602,0.503,2.41,0.798c-0.766-0.216-1.536-0.467-2.362-0.772c0.772,0.418,1.555,0.845,2.334,1.281   c0.938,0.37,1.777,0.834,2.712,1.24c0.229,0.069,0.437,0.18,0.619,0.171l0.454-0.168c-0.281-0.133-0.587-0.238-0.853-0.32   c0.039,0.002,0.055-0.034,0.067-0.058c-0.382-0.192-0.69-0.263-1.082-0.469c0.672,0.069,1.349,0.432,2.039,0.769l0.175-0.1   c-1.371-0.818-2.863-1.466-4.351-2.01L67.577,52.341z M62.396,48.624c0.904,0.208,1.777,0.671,2.666,1.07l0.251,0.069   c0.176,0.059,0.309,0.142,0.429,0.239l0.062,0.027l-0.04-0.009c0.176,0.148,0.334,0.318,0.561,0.473l0.09-0.003l-0.067,0.123   c-0.779-0.042-1.395-0.684-2.141-0.943c-0.956-0.362-1.921-0.863-2.934-1.164c-0.155-0.048-0.324-0.217-0.453-0.304   C61.354,48.385,61.86,48.458,62.396,48.624z M61.313,27.421c0.733,0.375,1.327,1.001,1.969,1.535l0.196,0.113   c0.134,0.087,0.222,0.189,0.294,0.301l0.045,0.037l-0.032-0.016c0.107,0.167,0.18,0.359,0.324,0.544l0.081,0.012l-0.1,0.099   c-0.653-0.197-0.987-0.899-1.55-1.289c-0.71-0.537-1.379-1.204-2.179-1.691c-0.122-0.076-0.215-0.264-0.3-0.369   C60.472,26.979,60.909,27.145,61.313,27.421z M58.007,22.65c0.361,0.567,0.9,1.153,1.481,1.604   c-0.595,1.029-2.017-2.641-3.225-2.62C56.569,21.094,57.696,22.208,58.007,22.65z M51.976,19.635l0.315,0.392   c0.115,0.088,0.309,0.124,0.347,0.181c0.231,0.176,0.423,0.46,0.652,0.719c0.229,0.175,0.347,0.513,0.58,0.771   c0.038,0.057,0.155,0.061,0.193,0.035c0.194,0.451,0.582,0.52,0.815,0.943l-0.04-0.224c0.192,0.201,0.392,0.316,0.628,0.571   c0.158,0.226,0.43,0.287,0.548,0.456c0.468,0.511,0.884,1.065,1.394,1.373c-0.116,0-0.197-0.112-0.275-0.14   c-0.508-0.141-0.921-0.782-1.426-1.184c-0.157-0.142-0.354-0.258-0.511-0.401c-0.709-0.684-1.404-1.378-2.061-2.179   c-0.269-0.315-0.614-0.662-0.923-0.952c-0.104-0.098-0.183-0.209-0.257-0.323L51.976,19.635z M51.434,18.792l-0.007,0.018   l-0.011-0.005L51.434,18.792z M38.498,29.505c-0.542,0.693-1.25,1.172-1.945,1.679l-0.159,0.168   c-0.12,0.112-0.242,0.176-0.367,0.223l-0.047,0.037l0.023-0.028c-0.189,0.067-0.391,0.1-0.608,0.196l-0.034,0.074l-0.072-0.12   c0.351-0.591,1.114-0.768,1.631-1.231c0.656-0.596,1.497-1.138,2.043-1.941c0.079-0.125,0.268-0.218,0.375-0.306   C39.061,28.683,38.838,29.099,38.498,29.505z M40.831,25.458c-0.027-0.112,0.058-0.212,0.065-0.293   c0.013-0.505,0.5-1.028,0.706-1.613c0.085-0.179,0.124-0.396,0.2-0.582c0.389-0.845,0.746-1.704,1.199-2.586   c0.176-0.353,0.338-0.8,0.467-1.185c0.043-0.13,0.11-0.245,0.18-0.356l0.042,0.002l-0.216,0.435   c-0.03,0.137,0.02,0.323-0.015,0.379c-0.06,0.276-0.235,0.556-0.375,0.856c-0.066,0.27-0.319,0.502-0.464,0.797   c-0.037,0.054,0.004,0.16,0.043,0.187c-0.338,0.322-0.246,0.709-0.555,1.049l0.191-0.104c-0.115,0.239-0.155,0.453-0.31,0.747   c-0.152,0.215-0.124,0.481-0.246,0.636C41.422,24.41,40.999,24.904,40.831,25.458z M43.111,25.497   c-0.467,0.524-0.921,1.212-1.309,1.896c-1.067-0.328,2.258-2.687,1.756-3.896C44.182,23.593,43.477,25.058,43.111,25.497z    M44.191,18.017v-0.012l0.019,0.01L44.191,18.017z M45.966,16.916c0.23-0.522,0.442-1.111,0.732-1.522l0.028,0.023   C46.487,15.969,46.269,16.555,45.966,16.916z M46.802,15.771l-0.044,0.011l0.05-0.219C46.831,15.636,46.835,15.714,46.802,15.771z    M39.235,47.925c-0.248,0.761-0.913,1.546-1.372,2.107l-0.122,0.213c-0.095,0.147-0.206,0.248-0.324,0.331l-0.04,0.051l0.018-0.035   c-0.177,0.128-0.379,0.205-0.588,0.344l-0.023,0.081l-0.092-0.105c0.308-0.675,0.91-1.007,1.314-1.593   c0.509-0.759,1.108-1.51,1.384-2.402c0.046-0.134,0.208-0.263,0.291-0.368C39.499,46.998,39.445,47.473,39.235,47.925z    M41.441,41.161c-0.135,0.228-0.079,0.489-0.181,0.658c-0.259,0.614-0.608,1.164-0.692,1.731c-0.044-0.106,0.026-0.217,0.022-0.297   c-0.064-0.503,0.354-1.087,0.499-1.691c0.062-0.191,0.084-0.408,0.146-0.603c0.315-0.887,0.624-1.781,1.073-2.697   c0.171-0.371,0.336-0.823,0.481-1.223c0.047-0.134,0.118-0.253,0.192-0.368l0.042,0.003l-0.232,0.449   c-0.034,0.142,0.012,0.331-0.025,0.389c-0.065,0.281-0.238,0.569-0.375,0.882c-0.062,0.279-0.315,0.519-0.445,0.829   c-0.035,0.057,0.012,0.163,0.052,0.187c-0.321,0.353-0.217,0.726-0.494,1.098l0.183-0.122   C41.592,40.635,41.57,40.854,41.441,41.161z M42.815,43.314c-0.385,0.548-0.719,1.263-0.958,1.97   c-1.123-0.187,1.729-2.847,1.168-3.946C43.645,41.398,43.1,42.854,42.815,43.314z M43.578,35.833l0-0.012l0.019,0.011   L43.578,35.833z M45.466,34.831c0.299-0.5,0.597-1.069,0.964-1.434l0.024,0.027C46.115,33.94,45.816,34.5,45.466,34.831z    M46.464,33.789l-0.045,0.005l0.089-0.211C46.517,33.659,46.504,33.735,46.464,33.789z M40.517,64.304   c-0.266,0.651-0.749,1.208-1.211,1.747l-0.091,0.174c-0.072,0.117-0.161,0.191-0.259,0.248l-0.031,0.04l0.013-0.028   c-0.149,0.084-0.317,0.139-0.481,0.252l-0.009,0.073l-0.096-0.104c0.15-0.585,0.765-0.837,1.083-1.324   c0.409-0.64,0.958-1.212,1.261-1.958c0.05-0.112,0.205-0.195,0.286-0.273C40.792,63.525,40.708,63.929,40.517,64.304z    M44.204,61.085c-0.426,0.378-0.83,0.913-1.117,1.479c-1.029-0.471,1.933-2.051,1.568-3.171   C45.226,59.613,44.521,60.752,44.204,61.085z M44.789,55.657c-0.036,0.111,0,0.284-0.036,0.326c-0.071,0.225-0.25,0.43-0.393,0.666   c-0.071,0.228-0.322,0.371-0.474,0.603c-0.037,0.04-0.004,0.144,0.03,0.175c-0.329,0.22-0.27,0.572-0.564,0.825l0.18-0.058   c-0.113,0.195-0.163,0.377-0.32,0.61c-0.153,0.16-0.133,0.409-0.249,0.53c-0.313,0.47-0.712,0.86-0.86,1.344   c-0.027-0.105,0.052-0.185,0.058-0.258c0.004-0.467,0.47-0.868,0.677-1.361c0.081-0.151,0.128-0.336,0.208-0.488   c0.396-0.688,0.777-1.38,1.243-2.056c0.179-0.276,0.356-0.625,0.498-0.931c0.045-0.104,0.109-0.19,0.178-0.271l0.039,0.012   L44.789,55.657z M45.501,54.722l0-0.01l0.017,0.013L45.501,54.722z M59.593,63.846c0.633,0.075,1.221,0.443,1.665,0.613   l0.156,0.015c0.106,0.019,0.178,0.067,0.239,0.132l0.037,0.013l-0.025-0.001c0.087,0.102,0.167,0.225,0.3,0.316l0.062-0.021   l-0.062,0.125c-0.524,0.113-0.844-0.339-1.28-0.471c-0.553-0.171-1.237-0.591-1.903-0.674c-0.107-0.02-0.197-0.145-0.275-0.203   C58.862,63.781,59.238,63.761,59.593,63.846z M51.412,60.809c-0.007-0.003-0.013-0.007-0.019-0.01   c-0.002-0.014-0.003-0.027-0.005-0.041l0.009,0.007c0.002,0.001,0.005,0.001,0.007,0.002   C51.407,60.781,51.409,60.795,51.412,60.809z M51.083,60.541l0.012-0.026l0.203,0.168c-0.001,0.019-0.001,0.037-0.002,0.055   c-0.08-0.051-0.148-0.113-0.211-0.179C51.085,60.553,51.084,60.547,51.083,60.541z M48.958,20.105l0.002-0.557   c0.039,0.138,0.062,0.31,0.04,0.479L48.958,20.105z M47.862,33.661c-0.01,0.004-0.02,0.008-0.03,0.013   c0.009-0.029,0.017-0.059,0.024-0.088C47.858,33.61,47.86,33.636,47.862,33.661z M47.887,34.032   c0.003,0.056,0.006,0.112,0.01,0.168c-0.024,0.019-0.05,0.029-0.078,0.026c-0.044-0.012-0.065-0.043-0.075-0.085   c-0.001-0.01-0.001-0.02-0.002-0.03C47.8,34.118,47.849,34.094,47.887,34.032z M47.561,31.566l0.003,0.073   c-0.009-0.016-0.021-0.03-0.029-0.048C47.542,31.584,47.552,31.575,47.561,31.566z M47.547,32.045c0.011,0,0.025-0.002,0.038-0.003   l0.005,0.109c0.053,0.341,0.198,0.68,0.201,0.851c0,0.002,0.001,0.005,0.001,0.007c-0.002-0.004-0.005-0.007-0.007-0.011   l-0.127,0.14c-0.014-0.153-0.029-0.305-0.044-0.456l0.034-0.075l-0.001,0c-0.014,0.006-0.025,0.009-0.039,0.014   C47.587,32.425,47.567,32.233,47.547,32.045z M48.119,38.75c0.017,0.844,0.19,1.485,0.178,2.457l0.084-0.519   c0.06,0.689,0.164,1.203,0.228,2.063c0.013,0.689,0.207,1.199,0.229,1.713c0.157,1.711,0.209,3.429,0.509,4.786   c-0.101-0.167-0.116-0.51-0.171-0.679c-0.375-1.011-0.387-2.903-0.631-4.442c-0.064-0.513-0.163-1.029-0.221-1.545   c-0.146-1.34-0.256-2.719-0.344-4.113C48.023,38.565,48.069,38.659,48.119,38.75z M50.393,41.249l0.013,0.017   c0.016,0.043,0.031,0.091,0.047,0.141c-0.026-0.039-0.053-0.077-0.077-0.116L50.393,41.249z M50.482,18.829   c-0.096,0.091-0.139-0.097-0.158-0.404c0.073,0.085,0.148,0.17,0.221,0.256C50.528,18.744,50.509,18.796,50.482,18.829z    M50.523,15.475l-0.009,0.045l-0.176-0.138C50.413,15.392,50.486,15.421,50.523,15.475z M51.193,16.719   c-0.37-0.439-0.811-0.875-1.055-1.309l0.033-0.016C50.565,15.841,51.001,16.285,51.193,16.719z M48.81,19.293l0.034,0.019   c-0.143,1.542-0.138,3.125-0.279,4.317C48.576,22.167,48.582,20.574,48.81,19.293z M47.53,30.957   c-0.012-0.004-0.024-0.009-0.037-0.01l0.034-0.049L47.53,30.957z M47.519,28.36l-0.015,0.029l-0.006-0.026L47.519,28.36z    M47.914,53.311l0.043-0.179c0.023,0.065,0.028,0.133-0.002,0.176L47.914,53.311z M48.527,55.578   c0.055-0.087,0.11-0.174,0.166-0.26c0.008,0.073,0.016,0.147,0.023,0.221c-0.061,0.022-0.124,0.036-0.189,0.041   C48.527,55.58,48.527,55.579,48.527,55.578z M47.177,54.143c0.234-0.399,0.403-0.876,0.672-1.173l0.027,0.024   C47.662,53.421,47.477,53.896,47.177,54.143z M48.637,56.146c-0.018-0.1-0.037-0.197-0.055-0.295   c0.063,0.022,0.12,0.029,0.169,0.011c0.012,0.115,0.024,0.229,0.036,0.344C48.74,56.187,48.689,56.166,48.637,56.146z    M48.895,56.246c-0.028-0.141-0.056-0.282-0.086-0.422c0.062-0.058,0.109-0.174,0.141-0.376c-0.069,0.022-0.137,0.053-0.205,0.079   c-0.016-0.071-0.031-0.144-0.047-0.216c0.076-0.117,0.154-0.234,0.232-0.353c0.021,0.158,0.04,0.317,0.058,0.477l-0.037,0.012   l0.045,0.057c0.031,0.263,0.062,0.526,0.089,0.791C49.029,56.289,48.965,56.271,48.895,56.246z M51.986,68.444l-0.01-0.089   c-0.055,0.509-0.146,0.995-0.203,1.6l0.039,0.174l-0.141-0.007c-0.225-1.561-0.008-3.493-0.182-5.191   c-0.118-1.197-0.209-2.443-0.333-3.683c0.059,0.053,0.117,0.105,0.176,0.157l0.017-0.027l0.098,0.088   c0.039,0.227,0.068,0.471,0.075,0.717c0.036,0.678,0.101,1.354,0.15,2.022c-0.051-0.928-0.114-1.857-0.202-2.717l0.049,0.045   c0.218,1.613,0.32,3.357,0.394,5.065l0.071,0.563c0.045,0.374,0.04,0.795-0.001,1.128L51.986,68.444z M56.486,61.089   c0.34,0.338,0.835,0.621,1.354,0.777c-0.415,1.056-1.879-1.423-2.892-0.992C55.178,60.332,56.191,60.847,56.486,61.089z    M53.06,61.685c0.201,0.311,0.542,0.242,0.774,0.517l-0.051-0.174c0.181,0.105,0.358,0.131,0.58,0.262   c0.152,0.133,0.388,0.09,0.502,0.188c0.444,0.249,0.827,0.573,1.286,0.637c-0.098,0.042-0.175-0.02-0.243-0.015   c-0.438,0.063-0.836-0.321-1.302-0.475c-0.145-0.064-0.321-0.093-0.467-0.157c-0.405-0.2-0.81-0.414-1.207-0.657   c-0.001-0.026-0.002-0.053-0.002-0.078C52.976,61.734,53.036,61.709,53.06,61.685z M52.79,61.723   c-0.024-0.017-0.049-0.03-0.073-0.046c-0.012-0.047-0.022-0.093-0.032-0.14c0.03,0.033,0.062,0.065,0.097,0.096   C52.784,61.662,52.787,61.692,52.79,61.723z M51.458,51.071c-0.891,1.063-0.574-6.016-1.115-9.012   c0.114,0.157,0.228,0.314,0.342,0.472c0.163,1.062,0.264,2.38,0.299,3.062C50.999,47.291,51.178,49.281,51.458,51.071z    M57.05,46.767c-0.593-0.047-1.23-0.679-1.883-1.067c-0.21-0.137-0.454-0.242-0.667-0.38c-0.922-0.718-1.875-1.452-2.694-2.43   c-0.231-0.249-0.501-0.517-0.757-0.784c-0.003-0.061-0.006-0.121-0.009-0.182c0.052,0.029,0.093,0.055,0.11,0.082   c0.262,0.23,0.53,0.556,0.819,0.867c0.277,0.211,0.46,0.603,0.752,0.908c0.056,0.062,0.184,0.064,0.22,0.034   c0.319,0.498,0.752,0.56,1.105,1.022l-0.098-0.249c0.262,0.209,0.477,0.348,0.811,0.592c0.237,0.228,0.544,0.263,0.72,0.431   c0.64,0.51,1.262,1.027,1.907,1.255C57.266,46.886,57.142,46.783,57.05,46.767z M55.258,43.594c0.188-0.582,1.61,0.463,2.059,0.86   c0.516,0.55,1.281,1.03,2.011,1.383C59.029,47.04,56.428,43.517,55.258,43.594z"/><path fill="#000000" d="M68.423,52.596l0.786,0.206c1.229,0.364,2.49,1.123,3.739,1.664c0.101-0.103,0.171-0.224,0.196-0.375   c-1.229-0.831-2.648-1.291-3.904-2.045l-0.037-0.003c-0.683-0.046-1.539-0.601-2.331-0.771c-0.82-0.125-1.55-0.418-2.342-0.609   c0.978,0.571,1.977,0.985,2.914,1.594L68.423,52.596z"/><path fill="#000000" d="M58.344,49.327c0.277,0.168,0.552,0.347,0.841,0.497c0.816,0.405,1.549,0.754,2.33,1.019   c-0.521-0.28-1.026-0.604-1.529-0.94C59.454,49.608,58.892,49.52,58.344,49.327z"/><path fill="#000000" d="M62.146,51.063l-0.631-0.221c0.765,0.434,1.537,0.833,2.317,1.199c1.32,0.543,2.635,1.059,3.981,1.495   l0.446,0.166c-2.271-1.263-4.513-2.537-6.72-3.237l-0.129-0.04c0.925,0.539,1.863,1.023,2.81,1.469   C63.535,51.614,62.841,51.35,62.146,51.063z"/><polygon fill="#000000" points="67.13,52.149 67.326,52.262 67.577,52.341 67.444,52.256  "/><path fill="#000000" d="M65.764,50.02l-0.022-0.019l-0.68-0.308c-0.343-0.098-0.693-0.215-1.041-0.353   C64.628,49.629,65.231,49.91,65.764,50.02z"/><path fill="#000000" d="M64.489,47.986c-0.063-0.04-0.192-0.118-0.257-0.157l-0.16,0l0.177,0.119L64.489,47.986z"/><path fill="#000000" d="M60.372,46.177c1.174,0.646,2.325,1.167,3.49,1.649l0.21,0.003c-0.704-0.453-1.426-0.843-2.192-1.059   c-0.15-0.044-0.418-0.054-0.543-0.137c-0.61-0.366-1.225-0.66-1.855-0.952l0.867,0.481L60.372,46.177z"/><path fill="#000000" d="M33.407,68.906c0.02,0.021,0.026,0.035-0.04,0.04L33.407,68.906c-0.018-0.021-0.047-0.047-0.041-0.076   c-0.106,0.175-0.239,0.37-0.391,0.535l0.044,0.166c0.382-0.402,0.781-0.785,0.94-1.278C33.726,68.473,33.624,68.686,33.407,68.906z   "/><path fill="#000000" d="M33.145,69.805c0.066-0.005,0.059-0.02,0.04-0.041L33.145,69.805z"/><path fill="#000000" d="M39.638,62.282c0.216-0.263,0.32-0.583,0.425-0.903c-0.366,0.534-0.791,1.032-1.021,1.495L39.638,62.282z"/><path fill="#000000" d="M40.688,59.906c-0.356,0.227-0.518,0.547-0.64,0.889l0.624-0.774L40.688,59.906z"/><path fill="#000000" d="M40.565,60.436c-0.273,0.263-0.391,0.601-0.502,0.943C40.267,61.076,40.448,60.761,40.565,60.436z"/><path fill="#000000" d="M37.966,68.781c-0.093,0.271-0.165,0.419-0.218,0.488c0.016,0.074,0.034,0.168,0.051,0.288l0.033-0.03   l0.423-0.708c0.04-0.117,0.073-0.235,0.085-0.352L37.966,68.781z"/><path fill="#000000" d="M37.748,69.27C37.609,68.637,37.539,69.544,37.748,69.27L37.748,69.27z"/><polygon fill="#000000" points="37.044,65.875 36.955,66.002 36.983,65.976  "/><path fill="#000000" d="M40.158,64.832c-0.15,0.167-0.291,0.345-0.421,0.527c0.298-0.347,0.599-0.695,0.779-1.056   c-0.041,0.039-0.115,0.043-0.156,0.082C40.342,64.531,40.283,64.715,40.158,64.832z"/><path fill="#000000" d="M36.797,66.89l-0.432,0.617l-0.291,0.524c-0.492,0.799-1.319,1.457-1.939,2.207   c0.074,0.119,0.169,0.224,0.295,0.304c0.86-0.612,1.454-1.512,2.28-2.171l0.008-0.027c0.139-0.513,0.74-0.941,0.996-1.495   c0.224-0.589,0.575-1.041,0.828-1.596C37.945,65.807,37.444,66.406,36.797,66.89z"/><path fill="#000000" d="M39.551,61.921c0.268-0.323,0.359-0.736,0.497-1.126l-0.411,0.519c-0.369,0.503-0.663,0.983-0.958,1.489   C38.964,62.504,39.249,62.208,39.551,61.921z"/><path fill="#000000" d="M38.443,63.218l0.235-0.415c-0.421,0.443-0.823,0.899-1.228,1.356c-0.601,0.818-1.226,1.619-1.793,2.481   l-0.206,0.276c1.403-1.229,2.809-2.446,3.547-3.955l0.043-0.088c-0.524,0.535-1.016,1.092-1.511,1.648   C37.846,64.097,38.154,63.665,38.443,63.218z"/><polygon fill="#000000" points="36.933,66.688 36.81,66.795 36.705,66.957 36.797,66.89  "/><path fill="#000000" d="M38.936,66.484l0.019-0.012l0.351-0.422c0.128-0.234,0.273-0.465,0.432-0.691   C39.417,65.733,39.098,66.102,38.936,66.484z"/><path fill="#000000" d="M40.851,66.235c0.041-0.039,0.124-0.117,0.166-0.156l0.018-0.133l-0.124,0.104L40.851,66.235z"/><path fill="#000000" d="M42.769,63.364c-0.597,0.839-1.155,1.631-1.707,2.411l-0.027,0.171c0.479-0.406,0.895-0.885,1.135-1.472   c0.05-0.113,0.077-0.333,0.16-0.411c0.359-0.408,0.624-0.877,0.896-1.331l-0.444,0.614L42.769,63.364z"/><path fill="#000000" d="M64.576,68.172c0.239,0.111,0.452,0.102,0.676,0.213c0.014-0.025,0.023-0.036,0.042,0.02l-0.042-0.02   c-0.012,0.023-0.027,0.061-0.053,0.066c0.165,0.025,0.355,0.067,0.526,0.139l0.134-0.101C65.44,68.301,65.029,68.09,64.576,68.172z   "/><path fill="#000000" d="M66.028,68.26l0.044,0.021C66.055,68.224,66.043,68.234,66.028,68.26z"/><path fill="#000000" d="M57.846,65.136c-0.269-0.145-0.576-0.176-0.888-0.212c0.537,0.239,1.051,0.53,1.508,0.638L57.846,65.136z"/><path fill="#000000" d="M55.512,64.585c0.243,0.31,0.568,0.404,0.899,0.462l-0.79-0.463L55.512,64.585z"/><path fill="#000000" d="M56.023,64.616c0.274,0.214,0.603,0.269,0.935,0.308C56.653,64.789,56.344,64.671,56.023,64.616z"/><path fill="#000000" d="M63.719,64.443c0.246-0.045,0.394-0.051,0.467-0.037c0.056-0.049,0.126-0.106,0.219-0.178l-0.036-0.014   c-0.233-0.005-0.486-0.021-0.7-0.037c-0.103,0.021-0.203,0.046-0.298,0.09L63.719,64.443z"/><path fill="#000000" d="M64.186,64.406C63.715,64.818,64.478,64.461,64.186,64.406L64.186,64.406z"/><polygon fill="#000000" points="61.613,66.531 61.749,66.561 61.718,66.547  "/><path fill="#000000" d="M60.108,64.038c0.272,0.175,0.348,0.184,0.536,0.265c-0.287-0.145-0.753-0.418-1.052-0.457   c0.04,0.028,0.052,0.095,0.092,0.123C59.817,63.947,59.989,63.955,60.108,64.038z"/><path fill="#000000" d="M63.194,66.414l0.529,0.013c0.822,0.068,1.661,0.48,2.502,0.81c0.088-0.109,0.157-0.231,0.195-0.376   c-0.826-0.615-1.821-0.726-2.63-1.142l-0.025,0.006c-0.473,0.114-1.002-0.209-1.528-0.19c-0.545,0.056-1.011-0.074-1.543-0.126   c0.604,0.362,1.244,0.562,1.852,0.907L63.194,66.414z"/><path fill="#000000" d="M56.411,65.047l0.531,0.293c0.514,0.247,0.997,0.424,1.507,0.579c-0.317-0.193-0.625-0.402-0.93-0.623   C57.19,65.11,56.791,65.111,56.411,65.047z"/><path fill="#000000" d="M58.783,65.978c0.022,0.084-0.233-0.045-0.334-0.059c0.263,0.113,1,0.643,1.49,0.836   c0.953,0.366,1.867,0.551,2.776,0.671l0.299,0.052c-1.469-0.585-3.078-1.535-4.462-1.896l-0.087-0.02   c0.555,0.326,1.084,0.708,1.796,1.01C59.772,66.427,59.296,66.187,58.783,65.978z"/><polygon fill="#000000" points="62.336,66.285 62.464,66.346 62.631,66.365 62.546,66.315  "/><path fill="#000000" d="M61.665,64.617l-0.012-0.012l-0.396-0.146c-0.221-0.018-0.412-0.082-0.613-0.156   C60.965,64.488,61.334,64.62,61.665,64.617z"/><path fill="#000000" d="M61.213,63.104l0.144-0.014c-0.028-0.02-0.086-0.06-0.114-0.079c-0.096-0.035,0.062,0.12-0.24-0.071   C61.296,63.162,61.128,63.038,61.213,63.104z"/><path fill="#000000" d="M58.575,61.993c0.78,0.368,1.529,0.683,2.274,0.97l0.152-0.022c-0.408-0.321-0.861-0.573-1.4-0.651   c-0.104-0.019-0.302,0.009-0.377-0.048c-0.389-0.231-0.814-0.379-1.237-0.535l0.571,0.279L58.575,61.993z"/></g></svg>